PathFileType	4	(X/Y/Z)	D:\TRACE\spotREDO_2-26-24\spot_justBody_Motion_2_7-v60.trc
DataRate	CameraRate	NumFrames	NumMarkers	Units	OrigDataRate	OrigDataStartFrame	OrigNumFrames
100.00	100.00	      21	9	mm	100.00	4376	      7000
Frame#	Time	front left toe			Front right toe			aft left toe			aft right toe			Arm			FL body			FR body			AL Body			AR Body			
		X1	Y1	Z1	X2	Y2	Z2	X3	Y3	Z3	X4	Y4	Z4	X5	Y5	Z5	X6	Y6	Z6	X7	Y7	Z7	X8	Y8	Z8	X9	Y9	Z9	

4376	43.750	-22.49046	35.43971	-156.99751	418.80026	36.20711	-67.73184	-207.41786	-2.90586	300.71231	359.68195	0.41406	369.97186	202.07288	812.84064	-281.34436	112.32719	554.49200	-280.38110	265.62057	555.66510	-248.94626	-71.55456	551.20190	584.36932	66.81977	553.04010	614.87500	
4377	43.760	-22.98243	35.76841	-156.96141	418.43073	36.09902	-67.56393	-208.04951	-2.89746	300.60968	359.37650	0.32164	370.25604	203.29431	813.25433	-280.54684	113.20694	555.07227	-280.38782	265.75821	556.50659	-249.10323	-70.96342	550.37537	584.57043	68.00230	552.00708	614.86896	
4378	43.770	-23.46603	35.83911	-156.87512	417.93066	36.25761	-67.41245	-208.60666	-3.10243	300.63269	358.97369	0.25821	370.35101	204.02966	813.82385	-280.15240	113.98608	555.45514	-280.32956	267.44995	556.76849	-248.75027	-69.52402	549.42664	584.64655	68.67340	551.39532	614.98029	
4379	43.780	-24.03075	35.97491	-156.76628	417.34055	36.42900	-67.34316	-208.95235	-3.18358	300.65405	358.63007	0.05403	370.47684	204.80428	814.50934	-280.02243	115.04320	555.94702	-280.29514	268.63223	557.28076	-248.78915	-68.99558	548.70441	584.47070	69.83141	550.48572	614.76556	
4380	43.790	-24.61162	36.06721	-156.70268	416.85907	36.36193	-67.40448	-209.48932	-3.09154	300.56635	357.66394	-0.40437	370.74399	205.67120	814.91858	-279.57574	116.32352	556.26190	-280.24258	269.07474	557.86401	-249.10283	-67.72183	547.78577	584.31213	70.80760	549.78668	614.69623	
4381	43.800	-24.89369	36.14972	-156.63998	416.06989	36.10912	-67.46501	-210.08318	-2.95832	300.53745	357.26837	-0.64633	370.92856	206.70653	815.36041	-279.29184	117.58852	556.66547	-280.31293	270.81097	558.15393	-248.94960	-66.76347	547.00818	584.21301	71.20118	549.09332	614.60382	
4382	43.810	-25.44673	36.49026	-156.74438	415.75238	36.04230	-67.41825	-210.64175	-2.79588	300.61249	356.96362	-0.69112	371.15613	207.41032	815.78766	-279.28671	118.76215	557.14966	-280.33792	272.03180	558.69855	-248.91296	-65.70000	546.39752	584.18903	73.06750	548.42773	614.56177	
4383	43.820	-25.92097	36.63877	-156.77016	415.25516	35.74179	-67.45568	-211.16637	-2.79571	300.57645	356.54337	-0.74166	371.26248	208.80043	816.28882	-279.24695	120.07795	557.42468	-280.77008	273.38049	559.09149	-249.17293	-64.33261	545.81592	584.03870	74.35007	547.90277	614.50281	
4384	43.830	-26.35214	36.75113	-156.86276	415.01559	35.56750	-67.30793	-211.56688	-2.70945	300.64697	356.01260	-0.95387	371.23413	209.84879	816.57953	-279.16083	121.25747	557.83069	-280.89124	274.81302	559.61646	-249.26984	-63.17870	545.11145	583.74927	75.28183	547.37677	614.20728	
4385	43.840	-26.69313	36.78071	-157.10744	414.05048	35.02644	-67.28284	-211.97746	-2.51573	300.62320	355.07797	-1.16890	371.23309	210.96901	816.89929	-278.81027	123.17329	557.91254	-280.97775	276.66620	560.01489	-249.30406	-62.00198	544.36731	583.41522	76.69836	546.76422	614.03906	
4386	43.850	-27.42081	37.02604	-157.21761	413.73544	35.07793	-67.13434	-212.46994	-2.36045	300.65848	354.75058	-1.05520	371.40707	212.18346	817.37006	-278.85950	124.51441	558.32336	-281.12421	277.37634	560.65143	-249.64816	-60.54697	543.63757	583.26465	77.76112	546.21326	614.00958	
4387	43.860	-28.24353	37.38668	-157.33702	413.36716	34.97646	-66.97274	-213.15407	-2.20056	300.80026	354.34628	-1.07072	371.74341	213.33611	817.89502	-278.86993	125.87058	558.65558	-281.52225	279.20181	561.11725	-249.71013	-59.43109	543.03851	582.91589	78.42825	545.93268	613.57800	
4388	43.870	-28.69031	37.58203	-157.37132	412.84595	34.76843	-67.05828	-213.83488	-2.07681	300.83136	353.55875	-1.11698	371.76871	214.27539	818.32922	-278.89557	127.51974	559.02899	-281.69827	280.56104	561.58600	-249.92697	-58.10646	542.43695	582.63818	80.17284	545.29352	613.23846	
4389	43.880	-29.04152	37.58582	-157.51904	412.08310	34.57640	-67.25043	-214.54451	-1.72519	300.72702	352.69879	-1.09772	371.94336	215.63737	818.94391	-278.92139	129.00542	559.38385	-282.08038	281.56531	562.31525	-250.36133	-56.92663	541.64563	582.21423	81.55534	544.64191	612.98578	
4390	43.890	-29.53295	37.63074	-157.47618	411.42294	34.09124	-67.29407	-214.93018	-1.79094	300.75760	352.31989	-1.01279	372.03250	216.90129	819.23877	-278.79541	130.37094	559.81171	-282.33508	283.60904	562.72070	-250.38469	-55.52596	540.83984	581.85480	83.27427	544.04535	612.76617	
4391	43.900	-30.16290	37.64880	-157.63869	410.94208	33.98861	-67.08907	-215.64767	-1.57606	300.64163	351.78387	-1.11280	372.08008	218.12387	819.69965	-278.81638	132.31537	559.94635	-282.57858	285.10379	563.29480	-250.64844	-54.28827	540.12634	581.45245	84.51582	543.48474	612.36780	
4392	43.910	-31.06096	37.68041	-157.92909	410.29126	33.54044	-67.16931	-216.52666	-1.18458	300.65829	350.95187	-1.20049	372.26724	219.51088	820.24579	-278.84445	133.81129	560.30652	-282.88306	286.63605	563.66211	-250.94897	-52.91087	539.33295	581.07520	86.41114	542.71558	612.19403	
4393	43.920	-31.71308	37.72152	-158.00055	409.54068	33.26743	-67.20577	-217.13222	-0.88187	300.59418	350.16446	-1.20853	372.31174	220.39738	820.75311	-279.10605	135.51271	560.87164	-283.16699	287.83356	564.40729	-251.33675	-51.36783	538.61566	580.53790	87.74236	542.34528	611.79224	
4394	43.930	-32.28889	37.78733	-158.06956	408.85580	33.31254	-67.26350	-217.80424	-0.51708	300.61655	349.86356	-1.06091	372.35999	221.92014	821.49188	-279.09561	137.00552	561.20123	-283.35803	289.88507	564.92224	-251.16513	-50.05111	537.91785	580.20197	89.84623	541.68542	611.25354	
4395	43.940	-32.71712	37.65833	-158.12592	408.15906	32.95101	-67.57686	-218.48834	-0.07723	300.52255	348.96237	-1.01251	372.33075	223.25807	821.87146	-279.00595	138.62163	561.78052	-284.05536	291.17725	565.65625	-251.91328	-48.63157	537.22723	579.74744	91.76582	540.79932	611.05835	
4396	43.950	-33.47447	37.82126	-158.35983	407.57013	32.71026	-67.49544	-218.91774	0.05556	300.45996	348.15778	-0.80805	372.30963	224.62669	822.17725	-279.12106	140.16193	562.04315	-284.43823	293.58511	566.11597	-252.20486	-46.95720	536.47034	579.31586	91.15659	540.76129	610.45630	
